<?xml version="1.0" encoding="utf-8"?>
<!-- Generator: Adobe Illustrator 16.0.0, SVG Export Plug-In . SVG Version: 6.00 Build 0)  -->
<!DOCTYPE svg PUBLIC "-//W3C//DTD SVG 1.1//EN" "http://www.w3.org/Graphics/SVG/1.1/DTD/svg11.dtd">
<svg version="1.1" id="Layer_1" xmlns="http://www.w3.org/2000/svg" xmlns:xlink="http://www.w3.org/1999/xlink" x="0px" y="0px"
	 width="262.487px" height="68.492px" viewBox="0 0 262.487 68.492" enable-background="new 0 0 262.487 68.492"
	 xml:space="preserve">
<g>
	<g>
		<g>
			<polygon fill="#006280" points="106.665,33.304 106.665,29.926 92.886,29.926 92.886,49.269 96.936,49.269 96.936,41.113 
				105.442,41.113 105.442,37.705 96.936,37.705 96.936,33.304 			"/>
			<path fill="#006280" d="M114.125,35.469c-3.811,0-6.902,3.089-6.902,6.902c0,3.811,3.091,6.898,6.902,6.898
				s6.897-3.088,6.897-6.898C121.023,38.558,117.936,35.469,114.125,35.469z M114.125,46.177c-2.104,0-3.807-1.705-3.807-3.809
				s1.704-3.811,3.807-3.811s3.808,1.709,3.808,3.811C117.933,44.472,116.229,46.177,114.125,46.177z"/>
			<path fill="#006280" d="M144.48,35.469c-3.81,0-6.9,3.089-6.9,6.902c0,3.811,3.089,6.898,6.9,6.898c3.813,0,6.9-3.088,6.9-6.898
				C151.38,38.558,148.293,35.469,144.48,35.469z M144.48,46.177c-2.102,0-3.81-1.705-3.81-3.809s1.708-3.811,3.81-3.811
				c2.103,0,3.808,1.709,3.808,3.811C148.288,44.472,146.583,46.177,144.48,46.177z"/>
			<path fill="#006280" d="M136.744,38.497v-3.029h-10.768v-5.585h-3.031v5.585h-1.921v3.029h1.921v3.873
				c0,3.811,3.087,6.898,6.902,6.898c3.807,0,6.897-3.088,6.897-6.898h-3.093c0,2.102-1.704,3.809-3.804,3.809
				c-2.104,0-3.811-1.705-3.811-3.809h-0.059v-3.873H136.744z"/>
		</g>
		<g>
			<polygon fill="#8C2B74" points="206.143,34.568 205.326,33.115 210.793,29.919 212.034,32.085 			"/>
			<rect x="228.713" y="29.919" fill="#8C2B74" width="3.132" height="3.39"/>
			<path fill="#8C2B74" d="M192.723,40.128h-3.125h-3.942v3.012h2.866c-1.106,1.596-2.943,2.641-5.028,2.641
				c-3.379,0-6.127-2.744-6.127-6.125c0-3.388,2.748-6.128,6.127-6.128c2.392,0,4.452,1.369,5.465,3.361h3.704
				c-1.183-3.941-4.839-6.812-9.169-6.812c-5.286,0-9.574,4.285-9.574,9.579c0,5.285,4.288,9.574,9.574,9.574
				c5.131,0,9.307-4.035,9.557-9.102H192.723z"/>
			<path fill="#8C2B74" d="M197.756,36.611v-1.143h-3.441V49.23h3.441v-7.059h0.008c0.102-2.012,1.76-3.613,3.796-3.613v-3.09
				C200.155,35.469,198.848,35.889,197.756,36.611z"/>
			<path fill="#8C2B74" d="M212.722,35.293v1.656c-1.173-0.924-2.651-1.481-4.26-1.481c-3.812,0-6.902,3.09-6.902,6.9
				s3.09,6.9,6.902,6.9c1.608,0,3.087-0.555,4.26-1.48v1.48h3.077V35.293H212.722z M208.462,46.177
				c-2.105,0-3.812-1.705-3.812-3.809s1.706-3.811,3.812-3.811c2.102,0,3.808,1.709,3.808,3.811
				C212.27,44.472,210.565,46.177,208.462,46.177z"/>
			<path fill="#8C2B74" d="M258.752,35.293v1.656c-1.174-0.924-2.652-1.481-4.262-1.481c-3.813,0-6.901,3.09-6.901,6.9
				s3.087,6.9,6.901,6.9c1.609,0,3.088-0.555,4.262-1.48v1.48h3.075V35.293H258.752z M254.49,46.177
				c-2.104,0-3.807-1.705-3.807-3.809s1.702-3.811,3.807-3.811c2.103,0,3.807,1.709,3.807,3.811
				C258.297,44.472,256.595,46.177,254.49,46.177z"/>
			<path fill="#8C2B74" d="M226.62,33.167v-3.091c-3.231,0-5.933,2.219-6.684,5.217h-2.684v2.773h2.47V49.23h3.079V38.067h3.818
				v-2.773h-3.41C223.832,34.034,225.121,33.167,226.62,33.167z"/>
			<rect x="228.713" y="35.293" fill="#8C2B74" width="3.132" height="13.937"/>
			<g>
				<path fill="#8C2B74" d="M240.051,45.982c-2.101,0-3.809-1.707-3.809-3.809c0-2.104,1.708-3.811,3.809-3.811
					c1.538,0,2.859,0.912,3.46,2.225h3.252c-0.716-3.048-3.444-5.315-6.712-5.315c-3.812,0-6.899,3.089-6.899,6.901
					s3.088,6.898,6.899,6.898c3.268,0,5.996-2.27,6.712-5.314h-3.252C242.91,45.068,241.59,45.982,240.051,45.982z"/>
			</g>
		</g>
		<g>
			<path fill="#F47B20" d="M160.768,53.952c-2.254,0-4.513-0.797-6.111-2.254c-1.806-1.646-2.526-3.887-2.029-6.311
				c0.479-2.354,1.928-3.844,3.209-5.16c0.141-0.145,0.284-0.291,0.426-0.443l0.165-0.166c-1.078-1.807-1.847-3.851-1.734-6.188
				c0.118-2.521,2.051-5.046,4.49-5.878c2.015-0.686,4.051-0.113,5.453,1.535c2.861,3.365,0.094,7.773-2.541,10.877
				c0.243,0.295,0.488,0.588,0.731,0.883c0.19,0.227,0.38,0.453,0.566,0.678c0.958,1.166,1.994,2.367,3.09,3.436
				c0.678-1.264,1.207-2.635,1.528-3.914l4.274,1.068c-0.473,1.873-1.278,3.836-2.27,5.539c0.386,0.201,0.772,0.371,1.163,0.5
				l-1.407,4.176c-0.854-0.289-1.678-0.68-2.464-1.146c-1.212,1.162-2.532,1.975-3.909,2.393
				C162.548,53.831,161.661,53.952,160.768,53.952z M159.072,43.22c-0.025,0.027-0.054,0.053-0.082,0.082
				c-1.131,1.164-1.837,1.93-2.051,2.967c-0.183,0.893,0.034,1.584,0.684,2.174c1.069,0.979,3.001,1.367,4.496,0.914
				c0.566-0.17,1.117-0.484,1.642-0.91c-1.371-1.291-2.625-2.729-3.772-4.123c-0.179-0.219-0.362-0.436-0.545-0.656
				C159.321,43.517,159.198,43.368,159.072,43.22z M160.853,31.667c-0.074,0-0.151,0.02-0.246,0.052
				c-0.731,0.25-1.482,1.198-1.518,1.918c-0.038,0.836,0.14,1.647,0.466,2.442c2.278-2.943,1.937-3.889,1.723-4.142
				C161.112,31.741,160.992,31.667,160.853,31.667z"/>
		</g>
	</g>
	<g>
		<path fill="#006280" d="M25.535,15.79l6.921-11.469c0,0,1.437-3.797,10.304-3.797h11.729c8.868,0,10.305,3.797,10.305,3.797
			l6.92,11.469h-4.827l-5.474-8.437c0,0-1.136-3.096-8.15-3.096h-9.275c-7.015,0-8.149,3.096-8.149,3.096l-5.474,8.437H25.535z"/>
		<g>
			<path fill="#8C2B74" d="M49.554,67.968c-14.824,0-26.884-12.059-26.884-26.879c0-14.826,12.06-26.884,26.884-26.884
				c14.823,0,26.883,12.058,26.883,26.884C76.438,55.909,64.376,67.968,49.554,67.968z M49.554,18.41
				c-12.504,0-22.677,10.171-22.677,22.679c0,12.502,10.172,22.676,22.677,22.676c12.505,0,22.678-10.174,22.678-22.676
				C72.232,28.583,62.059,18.41,49.554,18.41z"/>
		</g>
		<path fill="#6888A1" d="M70.939,41.089c0,11.811-9.574,21.385-21.386,21.385c-11.811,0-21.387-9.574-21.387-21.385
			c0-11.815,9.577-21.388,21.387-21.388C61.365,19.701,70.939,29.274,70.939,41.089z"/>
		<path fill="#006280" d="M80.714,17.569H65.877l5.128,4.386h6.212c3.692,0,6.685,2.993,6.685,6.685v25.148
			c0,3.693-2.993,6.686-6.685,6.686h-6.274l-5,4.154h14.771c4.132,0,7.481-3.352,7.481-7.48V25.052
			C88.196,20.918,84.845,17.569,80.714,17.569z"/>
		<g>
			<path fill="#006280" d="M16.994,60.472c-2.712,0-5.046-1.615-6.095-3.939h8.637c0.986,0,1.787-0.799,1.787-1.785
				s-0.801-1.783-1.787-1.783h-9.228v-1.301h5.401c0.986,0,1.788-0.801,1.788-1.785s-0.801-1.787-1.788-1.787h-5.401V28.639
				c0-3.692,2.993-6.686,6.685-6.686h10.528l4.729-4.385H13.497c-4.132,0-7.483,3.349-7.483,7.483v23.04H3.958
				c-0.986,0-1.785,0.803-1.785,1.787s0.798,1.785,1.785,1.785h2.056v1.301H2.445c-0.986,0-1.785,0.797-1.785,1.785
				c0,0.984,0.798,1.783,1.785,1.783h3.569v0.615c0,4.129,3.352,7.48,7.482,7.48H33.25l-5.084-4.154H16.994V60.472z"/>
		</g>
		<g>
			<path fill="#8C2B74" d="M64.833,33.892c0-2.102-1.703-3.806-3.806-3.806c-1.373,0-2.572,0.728-3.24,1.818
				c-0.671-1.09-1.869-1.818-3.24-1.818c-2.103,0-3.806,1.704-3.806,3.806c0,1.144,0.505,2.166,1.307,2.864l5.391,5.396
				c0.093,0.092,0.219,0.141,0.348,0.141c0.13,0,0.256-0.049,0.348-0.141l5.393-5.396C64.326,36.058,64.833,35.035,64.833,33.892
				L64.833,33.892z"/>
		</g>
	</g>
</g>
</svg>
