<?xml version="1.0" encoding="utf-8"?>
<!-- Generator: Adobe Illustrator 16.0.0, SVG Export Plug-In . SVG Version: 6.00 Build 0)  -->
<!DOCTYPE svg PUBLIC "-//W3C//DTD SVG 1.1//EN" "http://www.w3.org/Graphics/SVG/1.1/DTD/svg11.dtd">
<svg version="1.1" id="Layer_1" xmlns="http://www.w3.org/2000/svg" xmlns:xlink="http://www.w3.org/1999/xlink" x="0px" y="0px"
	 width="288px" height="75.6px" viewBox="0 0 288 75.6" enable-background="new 0 0 288 75.6" xml:space="preserve">
<g>
	<g>
		<polygon fill="#006280" points="116.6,36.764 116.6,33.047 101.444,33.047 101.444,54.323 105.899,54.323 105.899,45.352 
			115.256,45.352 115.256,41.605 105.899,41.605 105.899,36.764 		"/>
		<path fill="#006280" d="M124.806,39.145c-4.192,0-7.592,3.398-7.592,7.591c0,4.191,3.4,7.588,7.592,7.588s7.587-3.396,7.587-7.588
			C132.394,42.543,128.998,39.145,124.806,39.145z M124.806,50.923c-2.314,0-4.188-1.874-4.188-4.188s1.874-4.192,4.188-4.192
			c2.314,0,4.188,1.879,4.188,4.192S127.121,50.923,124.806,50.923z"/>
		<path fill="#006280" d="M158.196,39.145c-4.191,0-7.591,3.398-7.591,7.591c0,4.191,3.399,7.588,7.591,7.588
			c4.192,0,7.588-3.396,7.588-7.588C165.784,42.543,162.389,39.145,158.196,39.145z M158.196,50.923
			c-2.313,0-4.191-1.874-4.191-4.188s1.878-4.192,4.191-4.192c2.312,0,4.188,1.879,4.188,4.192S160.508,50.923,158.196,50.923z"/>
		<path fill="#006280" d="M149.686,42.477v-3.332h-11.845v-6.144h-3.334v6.144h-2.113v3.332h2.113v4.259
			c0,4.191,3.396,7.588,7.592,7.588c4.188,0,7.587-3.396,7.587-7.588h-3.403c0,2.313-1.874,4.188-4.184,4.188
			c-2.315,0-4.192-1.874-4.192-4.188h-0.065v-4.259H149.686z"/>
	</g>
	<g>
		<polygon fill="#8C2B74" points="226.021,38.154 225.122,36.555 231.137,33.04 232.501,35.423 		"/>
		<rect x="250.848" y="33.04" fill="#8C2B74" width="3.445" height="3.729"/>
		<path fill="#8C2B74" d="M211.26,44.27h-3.438h-4.335v3.312h3.152c-1.217,1.755-3.238,2.906-5.532,2.906
			c-3.717,0-6.738-3.019-6.738-6.737c0-3.727,3.021-6.742,6.738-6.742c2.631,0,4.898,1.506,6.012,3.697h4.075
			c-1.302-4.335-5.323-7.492-10.087-7.492c-5.814,0-10.531,4.713-10.531,10.537c0,5.813,4.717,10.53,10.531,10.53
			c5.644,0,10.238-4.438,10.513-10.011H211.26z"/>
		<path fill="#8C2B74" d="M216.796,40.402v-1.258h-3.786V54.28h3.786v-7.762h0.009c0.111-2.214,1.935-3.976,4.176-3.976v-3.398
			C219.436,39.145,217.997,39.607,216.796,40.402z"/>
		<path fill="#8C2B74" d="M233.258,38.951v1.822c-1.29-1.016-2.916-1.629-4.686-1.629c-4.192,0-7.592,3.398-7.592,7.591
			c0,4.191,3.399,7.588,7.592,7.588c1.77,0,3.396-0.61,4.686-1.627v1.627h3.384V38.951H233.258z M228.572,50.923
			c-2.315,0-4.192-1.874-4.192-4.188s1.877-4.192,4.192-4.192c2.313,0,4.188,1.879,4.188,4.192S230.886,50.923,228.572,50.923z"/>
		<path fill="#8C2B74" d="M283.888,38.951v1.822c-1.291-1.016-2.918-1.629-4.687-1.629c-4.195,0-7.592,3.398-7.592,7.591
			c0,4.191,3.396,7.588,7.592,7.588c1.769,0,3.396-0.61,4.687-1.627v1.627h3.384V38.951H283.888z M279.201,50.923
			c-2.314,0-4.188-1.874-4.188-4.188s1.874-4.192,4.188-4.192c2.313,0,4.188,1.879,4.188,4.192S281.515,50.923,279.201,50.923z"/>
		<path fill="#8C2B74" d="M248.546,36.613v-3.4c-3.555,0-6.526,2.441-7.353,5.738h-2.952v3.051h2.717V54.28h3.388V42.002h4.2v-3.051
			h-3.752C245.478,37.567,246.896,36.613,248.546,36.613z"/>
		<rect x="250.848" y="38.951" fill="#8C2B74" width="3.445" height="15.329"/>
		<g>
			<path fill="#8C2B74" d="M263.318,50.707c-2.31,0-4.188-1.877-4.188-4.188c0-2.313,1.878-4.192,4.188-4.192
				c1.692,0,3.146,1.004,3.806,2.447h3.577c-0.787-3.352-3.789-5.846-7.383-5.846c-4.191,0-7.587,3.398-7.587,7.591
				s3.396,7.588,7.587,7.588c3.594,0,6.596-2.495,7.383-5.845h-3.577C266.464,49.703,265.011,50.707,263.318,50.707z"/>
		</g>
	</g>
	<g>
		<path fill="#F47B20" d="M176.111,59.477c-2.48,0-4.964-0.877-6.723-2.48c-1.985-1.812-2.778-4.276-2.232-6.941
			c0.528-2.59,2.121-4.229,3.53-5.676c0.155-0.16,0.313-0.32,0.468-0.488l0.182-0.184c-1.186-1.986-2.032-4.234-1.908-6.805
			c0.131-2.773,2.256-5.551,4.94-6.466c2.215-0.754,4.455-0.124,5.997,1.688c3.148,3.701,0.104,8.55-2.794,11.964
			c0.267,0.324,0.537,0.648,0.804,0.971c0.209,0.25,0.417,0.498,0.622,0.746c1.055,1.282,2.194,2.604,3.399,3.778
			c0.746-1.388,1.329-2.898,1.681-4.304l4.702,1.174c-0.519,2.06-1.406,4.219-2.496,6.093c0.425,0.221,0.85,0.409,1.279,0.552
			l-1.549,4.591c-0.939-0.317-1.844-0.746-2.709-1.26c-1.333,1.278-2.785,2.171-4.3,2.631
			C178.069,59.342,177.093,59.477,176.111,59.477z M174.246,47.67c-0.028,0.031-0.059,0.059-0.09,0.09
			c-1.244,1.282-2.021,2.124-2.256,3.264c-0.201,0.982,0.038,1.743,0.753,2.392c1.175,1.074,3.3,1.503,4.945,1.005
			c0.622-0.186,1.229-0.533,1.805-1.001c-1.508-1.422-2.887-3.002-4.149-4.535c-0.197-0.24-0.398-0.479-0.599-0.723
			C174.52,47.998,174.385,47.833,174.246,47.67z M176.204,34.963c-0.082,0-0.166,0.023-0.271,0.058
			c-0.804,0.274-1.63,1.317-1.669,2.11c-0.042,0.92,0.154,1.812,0.514,2.686c2.504-3.238,2.129-4.278,1.893-4.556
			C176.49,35.044,176.358,34.963,176.204,34.963z"/>
	</g>
</g>
<g>
	<path fill="#006280" d="M27.362,17.499l7.612-12.615c0,0,1.58-4.177,11.334-4.177h12.901c9.754,0,11.335,4.177,11.335,4.177
		l7.612,12.615h-5.31l-6.021-9.28c0,0-1.25-3.405-8.964-3.405H47.659c-7.716,0-8.964,3.405-8.964,3.405l-6.021,9.28H27.362z"/>
	<g>
		<path fill="#8C2B74" d="M53.781,74.893c-16.306,0-29.571-13.264-29.571-29.566c0-16.307,13.265-29.571,29.571-29.571
			c16.304,0,29.57,13.264,29.57,29.571C83.352,61.629,70.085,74.893,53.781,74.893z M53.781,20.381
			c-13.754,0-24.944,11.189-24.944,24.945c0,13.752,11.189,24.943,24.944,24.943c13.755,0,24.944-11.191,24.944-24.943
			C78.726,31.571,67.536,20.381,53.781,20.381z"/>
	</g>
	<path fill="#6888A1" d="M77.304,45.326c0,12.992-10.531,23.523-23.523,23.523c-12.992,0-23.525-10.531-23.525-23.523
		c0-12.995,10.534-23.525,23.525-23.525C66.773,21.801,77.304,32.331,77.304,45.326z"/>
	<path fill="#006280" d="M88.055,19.456H71.736l5.641,4.824h6.833c4.061,0,7.353,3.292,7.353,7.353v27.663
		c0,4.062-3.292,7.354-7.353,7.354h-6.901l-5.5,4.568h16.247c4.545,0,8.229-3.686,8.229-8.229V27.687
		C96.285,23.14,92.6,19.456,88.055,19.456z"/>
	<g>
		<path fill="#006280" d="M17.966,66.648c-2.983,0-5.55-1.777-6.704-4.334h9.5c1.085,0,1.966-0.879,1.966-1.963
			c0-1.086-0.881-1.963-1.966-1.963H10.613v-1.43h5.941c1.085,0,1.966-0.881,1.966-1.963c0-1.084-0.881-1.967-1.966-1.967h-5.941
			V31.632c0-4.061,3.292-7.353,7.353-7.353h11.58l5.201-4.824H14.12c-4.545,0-8.231,3.684-8.231,8.231v25.342H3.627
			c-1.085,0-1.963,0.883-1.963,1.967c0,1.082,0.878,1.963,1.963,1.963h2.261v1.43H1.963C0.878,58.389,0,59.266,0,60.352
			c0,1.084,0.878,1.963,1.963,1.963h3.925v0.674c0,4.543,3.687,8.229,8.231,8.229h21.728l-5.592-4.568H17.966z"/>
	</g>
	<g>
		<path fill="#8C2B74" d="M70.587,37.41c0-2.311-1.873-4.186-4.186-4.186c-1.51,0-2.829,0.801-3.564,2c-0.738-1.199-2.056-2-3.564-2
			c-2.313,0-4.186,1.875-4.186,4.186c0,1.258,0.556,2.383,1.437,3.151l5.93,5.934c0.102,0.102,0.241,0.156,0.383,0.156
			c0.143,0,0.282-0.055,0.382-0.156l5.932-5.934C70.029,39.793,70.587,38.667,70.587,37.41L70.587,37.41z M70.587,37.41"/>
	</g>
</g>
</svg>
