<?xml version="1.0" encoding="utf-8"?>
<!-- Generator: Adobe Illustrator 16.0.0, SVG Export Plug-In . SVG Version: 6.00 Build 0)  -->
<!DOCTYPE svg PUBLIC "-//W3C//DTD SVG 1.1//EN" "http://www.w3.org/Graphics/SVG/1.1/DTD/svg11.dtd">
<svg version="1.1" id="Layer_1" xmlns="http://www.w3.org/2000/svg" xmlns:xlink="http://www.w3.org/1999/xlink" x="0px" y="0px"
	 width="200px" height="164.258px" viewBox="-10 -10.129 200 164.258" enable-background="new -10 -10.129 200 164.258"
	 xml:space="preserve">
<g>
	<path fill="#006280" d="M52.715,19.961L66.353-2.642c0,0,2.83-7.487,20.309-7.487h23.116c17.477,0,20.309,7.487,20.309,7.487
		l13.64,22.603h-9.518L123.42,3.331c0,0-2.24-6.103-16.063-6.103H89.079c-13.824,0-16.062,6.103-16.062,6.103L62.229,19.96
		L52.715,19.961L52.715,19.961z"/>
	<g>
		<polygon fill="#006280" points="8.137,130.221 8.137,126.305 -7.82,126.305 -7.82,148.703 -3.133,148.703 -3.133,139.264 
			6.721,139.264 6.721,135.314 -3.133,135.314 -3.133,130.221 		"/>
		<path fill="#006280" d="M16.772,132.725c-4.416,0-7.992,3.576-7.992,7.992c0,4.412,3.578,7.988,7.992,7.988
			c4.414,0,7.99-3.576,7.99-7.988S21.186,132.725,16.772,132.725z M16.772,145.125c-2.436,0-4.41-1.971-4.41-4.408
			s1.973-4.412,4.41-4.412c2.434,0,4.412,1.975,4.412,4.412S19.209,145.125,16.772,145.125z"/>
		<path fill="#006280" d="M51.927,132.725c-4.413,0-7.992,3.576-7.992,7.992c0,4.412,3.579,7.988,7.992,7.988
			s7.992-3.576,7.992-7.988S56.34,132.725,51.927,132.725z M51.927,145.125c-2.433,0-4.411-1.971-4.411-4.408
			s1.975-4.412,4.411-4.412c2.434,0,4.41,1.975,4.41,4.412C56.338,143.154,54.363,145.125,51.927,145.125z"/>
		<path fill="#006280" d="M42.967,136.236v-3.51h-12.47v-6.467h-3.508v6.467h-2.225v3.51h2.225v4.48
			c0,4.412,3.577,7.988,7.991,7.988c4.412,0,7.99-3.576,7.99-7.988h-3.582c0,2.436-1.971,4.408-4.409,4.408
			c-2.437,0-4.411-1.971-4.411-4.408h-0.072v-4.48H42.967z"/>
	</g>
	<g>
		<polygon fill="#8C2B74" points="123.338,131.678 122.39,129.998 128.719,126.297 130.159,128.807 		"/>
		<rect x="149.472" y="126.297" fill="#8C2B74" width="3.626" height="3.924"/>
		<path fill="#8C2B74" d="M107.796,138.119h-3.622H99.61v3.49h3.318c-1.28,1.844-3.406,3.055-5.825,3.055
			c-3.912,0-7.092-3.174-7.092-7.094c0-3.922,3.181-7.1,7.092-7.1c2.771,0,5.159,1.586,6.329,3.896h4.296
			c-1.38-4.566-5.607-7.893-10.625-7.893c-6.123,0-11.088,4.967-11.088,11.096c0,6.121,4.966,11.088,11.088,11.088
			c5.944,0,10.778-4.668,11.064-10.539H107.796L107.796,138.119z"/>
		<path fill="#8C2B74" d="M113.627,134.049v-1.324h-3.988v15.938h3.988v-8.176h0.005c0.12-2.328,2.04-4.18,4.397-4.18v-3.582
			C116.396,132.725,114.887,133.211,113.627,134.049z"/>
		<path fill="#8C2B74" d="M130.957,132.518v1.922c-1.362-1.07-3.072-1.715-4.937-1.715c-4.413,0-7.992,3.58-7.992,7.992
			s3.579,7.988,7.992,7.988c1.864,0,3.574-0.643,4.937-1.711v1.711h3.562V132.52h-3.562V132.518z M126.021,145.127
			c-2.437,0-4.413-1.973-4.413-4.41c0-2.436,1.977-4.41,4.413-4.41c2.435,0,4.411,1.975,4.411,4.41
			C130.427,143.152,128.455,145.127,126.021,145.127z"/>
		<path fill="#8C2B74" d="M184.258,132.518v1.922c-1.36-1.07-3.072-1.715-4.937-1.715c-4.412,0-7.99,3.58-7.99,7.992
			s3.578,7.988,7.99,7.988c1.864,0,3.578-0.643,4.937-1.711v1.711h3.562V132.52h-3.562V132.518z M179.321,145.127
			c-2.435,0-4.41-1.973-4.41-4.41c0-2.436,1.976-4.41,4.41-4.41c2.436,0,4.411,1.975,4.411,4.41S181.757,145.127,179.321,145.127z"
			/>
		<path fill="#8C2B74" d="M147.047,130.057v-3.578c-3.736,0-6.872,2.572-7.74,6.039H136.2v3.213h2.86v12.928h3.568V135.73h4.418
			v-3.213h-3.951C143.819,131.062,145.313,130.057,147.047,130.057z"/>
		<rect x="149.472" y="132.518" fill="#8C2B74" width="3.626" height="16.143"/>
		<g>
			<path fill="#8C2B74" d="M162.604,144.895c-2.437,0-4.411-1.971-4.411-4.41c0-2.434,1.975-4.41,4.411-4.41
				c1.78,0,3.307,1.057,4.005,2.572h3.765c-0.827-3.523-3.987-6.152-7.769-6.152c-4.417,0-7.991,3.58-7.991,7.99
				c0,4.416,3.574,7.992,7.991,7.992c3.781,0,6.941-2.627,7.769-6.154h-3.765C165.911,143.838,164.385,144.895,162.604,144.895z"/>
		</g>
	</g>
	<g>
		<path fill="#8C2B74" d="M100.05,122.793c-29.213,0-52.981-23.766-52.981-52.978c0-29.214,23.768-52.981,52.981-52.981
			c29.215,0,52.98,23.766,52.98,52.981C153.03,99.031,129.265,122.793,100.05,122.793z M100.05,25.124
			c-24.643,0-44.693,20.049-44.693,44.692s20.05,44.694,44.693,44.694c24.641,0,44.691-20.053,44.691-44.694
			C144.741,45.17,124.69,25.124,100.05,25.124z"/>
	</g>
	<circle fill="#6888A1" cx="100.048" cy="69.815" r="42.149"/>
	<g>
		<path fill="#F47B20" d="M70.792,154.129c-2.614,0-5.229-0.924-7.076-2.609c-2.092-1.91-2.929-4.504-2.355-7.311
			c0.555-2.723,2.236-4.449,3.716-5.973c0.166-0.168,0.333-0.34,0.496-0.51l0.189-0.199c-1.249-2.088-2.138-4.455-2.011-7.164
			c0.139-2.918,2.376-5.844,5.205-6.807c2.332-0.797,4.69-0.129,6.312,1.771c3.312,3.906,0.109,9.008-2.938,12.6
			c0.279,0.342,0.562,0.684,0.845,1.023c0.219,0.264,0.437,0.525,0.652,0.783c1.11,1.352,2.312,2.74,3.581,3.979
			c0.784-1.457,1.398-3.051,1.771-4.533l4.947,1.238c-0.543,2.166-1.477,4.441-2.624,6.416c0.444,0.232,0.89,0.428,1.342,0.58
			l-1.629,4.834c-0.988-0.334-1.939-0.789-2.853-1.33c-1.4,1.35-2.932,2.287-4.528,2.77
			C72.853,153.986,71.822,154.129,70.792,154.129z M68.824,141.701c-0.029,0.027-0.061,0.061-0.092,0.092
			c-1.313,1.35-2.13,2.24-2.375,3.438c-0.21,1.035,0.04,1.832,0.793,2.521c1.235,1.125,3.473,1.578,5.204,1.055
			c0.656-0.195,1.291-0.562,1.901-1.053c-1.586-1.498-3.04-3.164-4.367-4.773c-0.206-0.256-0.419-0.506-0.632-0.764
			C69.113,142.047,68.972,141.873,68.824,141.701z M70.888,128.322c-0.086,0-0.176,0.023-0.284,0.061
			c-0.849,0.287-1.717,1.391-1.758,2.221c-0.045,0.967,0.163,1.91,0.542,2.824c2.637-3.408,2.243-4.5,1.995-4.791
			C71.189,128.406,71.051,128.322,70.888,128.322z"/>
	</g>
	<path fill="#006280" d="M161.459,23.467h-29.238l10.104,8.643h12.243c7.275,0,13.176,5.897,13.176,13.177V94.85
		c0,7.277-5.9,13.178-13.176,13.178h-12.362l-9.858,8.182h29.112c8.144,0,14.745-6.602,14.745-14.748V38.215
		C176.204,30.07,169.603,23.467,161.459,23.467z"/>
	<g>
		<path fill="#006280" d="M35.881,108.021c-5.349,0-9.949-3.186-12.011-7.764h17.024c1.944,0,3.519-1.574,3.519-3.523
			c0-1.939-1.574-3.514-3.519-3.514h-18.19v-2.559h10.647c1.943,0,3.518-1.578,3.518-3.52c0-1.945-1.575-3.521-3.518-3.521H22.704
			V45.285c0-7.278,5.897-13.176,13.176-13.176h20.745l9.319-8.642H28.987c-8.143,0-14.746,6.603-14.746,14.747v45.407h-4.053
			c-1.943,0-3.519,1.576-3.519,3.52c0,1.945,1.576,3.521,3.519,3.521h4.053v2.557H7.207c-1.944,0-3.52,1.576-3.52,3.52
			c0,1.947,1.575,3.521,3.52,3.521h7.034v1.199c0,8.146,6.602,14.744,14.746,14.744h38.933L57.9,108.021H35.881L35.881,108.021z"/>
	</g>
	<g>
		<path fill="#8C2B74" d="M130.161,55.633c0-4.142-3.358-7.5-7.504-7.5c-2.702,0-5.063,1.437-6.382,3.583
			c-1.321-2.146-3.683-3.583-6.389-3.583c-4.141,0-7.498,3.359-7.498,7.5c0,2.255,0.996,4.273,2.572,5.648l10.627,10.629
			c0.18,0.181,0.428,0.284,0.688,0.284c0.255,0,0.503-0.103,0.683-0.284l10.631-10.629
			C129.163,59.907,130.161,57.889,130.161,55.633L130.161,55.633z"/>
	</g>
</g>
</svg>
