<?xml version="1.0" encoding="utf-8"?>
<!-- Generator: Adobe Illustrator 16.0.0, SVG Export Plug-In . SVG Version: 6.00 Build 0)  -->
<!DOCTYPE svg PUBLIC "-//W3C//DTD SVG 1.1//EN" "http://www.w3.org/Graphics/SVG/1.1/DTD/svg11.dtd">
<svg version="1.1" id="Layer_1" xmlns="http://www.w3.org/2000/svg" xmlns:xlink="http://www.w3.org/1999/xlink" x="0px" y="0px"
	 width="792px" height="612px" viewBox="0 0 792 612" enable-background="new 0 0 792 612" xml:space="preserve">
<g>
	<g>
		<path fill="#E4BA47" d="M279.616,264.549v-23.913h4.986v23.913H279.616z"/>
	</g>
	<g>
		<path fill="#E4BA47" d="M286.326,264.549v-17.718h4.376v2.124c1.541-2.376,3.334-2.593,5.236-2.593h0.609v4.791
			c-0.429-0.072-0.861-0.108-1.292-0.108c-2.869,0-4.268,1.441-4.268,4.286v9.22H286.326z"/>
	</g>
	<g>
		<path fill="#E4BA47" d="M300.963,256.915c0.143,2.665,1.648,4.393,3.944,4.393c1.507,0,2.835-0.756,3.158-1.979h4.806
			c-1.076,3.638-3.98,5.69-7.747,5.69c-5.884,0-8.825-3.241-8.825-9.652c0-5.474,3.121-9.004,8.538-9.004
			c5.415,0,8.286,3.53,8.286,10.553H300.963z M308.315,253.96c-0.072-2.629-1.794-3.888-3.622-3.888
			c-1.866,0-3.407,1.44-3.588,3.888H308.315z"/>
	</g>
	<g>
		<path fill="#E4BA47" d="M325.858,264.549v-10.731c0-2.738-0.79-3.494-3.013-3.494c-2.439,0-3.621,1.368-3.621,4.069v10.156h-4.664
			v-17.718h4.448v2.592c1.075-1.98,2.869-3.062,5.703-3.062c3.369,0,5.846,2.053,5.846,5.907v12.281H325.858z"/>
	</g>
	<g>
		<path fill="#E4BA47" d="M336.694,256.915c0.144,2.665,1.649,4.393,3.946,4.393c1.506,0,2.833-0.756,3.156-1.979h4.806
			c-1.075,3.638-3.98,5.69-7.746,5.69c-5.885,0-8.826-3.241-8.826-9.652c0-5.474,3.123-9.004,8.538-9.004
			c5.417,0,8.285,3.53,8.285,10.553H336.694z M344.047,253.96c-0.07-2.629-1.793-3.888-3.621-3.888c-1.865,0-3.408,1.44-3.588,3.888
			H344.047z"/>
	</g>
	<g>
		<path fill="#E4BA47" d="M368.42,264.549l-1.508-4.934h-8.785l-1.688,4.934h-5.271l8.5-23.913h5.776l8.392,23.913H368.42z
			 M362.503,246.002h-0.037l-3.048,9.508h6.061L362.503,246.002z"/>
	</g>
	<g>
		<path fill="#E4BA47" d="M374.88,264.549v-17.718h4.377v2.124c1.542-2.376,3.337-2.593,5.237-2.593h0.607v4.791
			c-0.431-0.072-0.858-0.108-1.29-0.108c-2.869,0-4.268,1.441-4.268,4.286v9.22H374.88z"/>
	</g>
	<g>
		<path fill="#E4BA47" d="M396.582,264.549c-0.143-0.433-0.25-1.045-0.284-1.584c-1.113,1.225-2.979,2.052-5.347,2.052
			c-4.018,0-5.883-1.981-5.883-4.863c0-5.113,3.409-5.689,8.106-6.337c2.332-0.325,2.979-0.792,2.979-2.018
			c0-1.152-1.15-1.837-2.979-1.837c-2.116,0-2.975,1.044-3.191,2.629h-4.341c0.072-3.673,2.082-6.231,7.747-6.231
			c5.597,0,7.533,2.521,7.533,6.989v11.199H396.582z M396.26,255.87c-0.466,0.468-1.291,0.72-3.013,1.045
			c-2.654,0.504-3.517,1.26-3.517,2.772c0,1.333,0.79,1.981,2.262,1.981c2.402,0,4.196-1.765,4.232-3.854L396.26,255.87z"/>
	</g>
	<g>
		<path fill="#E4BA47" d="M414.017,262.208c-0.644,1.584-2.582,2.521-4.77,2.521c-3.694,0-6.457-2.521-6.457-6.411v-11.488h4.663
			v10.803c0,2.197,1.005,3.313,2.979,3.313c2.116,0,3.585-1.405,3.585-3.313v-10.803h4.664v18.187c0,5.005-3.585,7.923-8.105,7.923
			c-5.165,0-7.785-2.845-7.785-7.42h4.343c0,2.089,1.218,3.387,3.656,3.387c1.687,0,3.228-1.477,3.228-3.817V262.208z"/>
	</g>
	<g>
		<path fill="#E4BA47" d="M431.596,264.549c-0.143-0.433-0.25-1.045-0.284-1.584c-1.113,1.225-2.979,2.052-5.345,2.052
			c-4.021,0-5.885-1.981-5.885-4.863c0-5.113,3.409-5.689,8.107-6.337c2.331-0.325,2.977-0.792,2.977-2.018
			c0-1.152-1.148-1.837-2.977-1.837c-2.116,0-2.977,1.044-3.192,2.629h-4.341c0.072-3.673,2.082-6.231,7.749-6.231
			c5.595,0,7.531,2.521,7.531,6.989v11.199H431.596z M431.273,255.87c-0.466,0.468-1.291,0.72-3.013,1.045
			c-2.652,0.504-3.516,1.26-3.516,2.772c0,1.333,0.789,1.981,2.26,1.981c2.403,0,4.198-1.765,4.232-3.854L431.273,255.87z"/>
	</g>
	<g>
		<path fill="#E4BA47" d="M441.187,264.549v-23.913h4.986v19.555h11.802v4.358H441.187z"/>
	</g>
	<g>
		<path fill="#E4BA47" d="M463.357,256.915c0.145,2.665,1.65,4.393,3.945,4.393c1.508,0,2.832-0.756,3.156-1.979h4.809
			c-1.077,3.638-3.981,5.69-7.749,5.69c-5.884,0-8.824-3.241-8.824-9.652c0-5.474,3.121-9.004,8.537-9.004s8.285,3.53,8.285,10.553
			H463.357z M470.712,253.96c-0.071-2.629-1.793-3.888-3.624-3.888c-1.864,0-3.407,1.44-3.586,3.888H470.712z"/>
	</g>
	<g>
		<path fill="#E4BA47" d="M476.561,255.689c0-5.617,3.477-9.328,9.072-9.328c5.527,0,8.968,3.674,8.968,9.328
			c0,5.618-3.478,9.328-8.968,9.328C479.931,265.018,476.561,261.2,476.561,255.689z M489.903,255.689
			c0-3.602-1.434-5.365-4.271-5.365c-2.832,0-4.267,1.764-4.267,5.365c0,3.602,1.435,5.402,4.267,5.402
			C488.47,261.092,489.903,259.292,489.903,255.689z M483.233,244.598l-1.113-1.981l7.424-4.358l1.686,2.954L483.233,244.598z"/>
	</g>
	<g>
		<path fill="#E4BA47" d="M507.408,264.549v-10.731c0-2.738-0.789-3.494-3.012-3.494c-2.44,0-3.623,1.368-3.623,4.069v10.156h-4.663
			v-17.718h4.447v2.592c1.078-1.98,2.869-3.062,5.706-3.062c3.372,0,5.846,2.053,5.846,5.907v12.281H507.408z"/>
	</g>
</g>
<g>
	<path fill="#1385A6" d="M279.649,262.929v84.558c0,14.684,11.9,26.586,26.581,26.586h179.263c14.682,0,26.583-11.902,26.583-26.586
		v-84.558H279.649z"/>
</g>
<g>
	<path fill="#FFFFFF" d="M418.681,245.831v18.187c0,5.005-3.585,7.923-8.105,7.923c-5.165,0-7.785-2.845-7.785-7.42h4.343
		c0,2.089,1.218,3.387,3.656,3.387c1.687,0,3.228-1.477,3.228-3.817v-2.881c-0.644,1.584-2.582,2.521-4.77,2.521
		c-3.694,0-6.457-2.521-6.457-6.411v-11.488h4.663v10.803c0,2.197,1.005,3.313,2.979,3.313c2.116,0,3.585-1.405,3.585-3.313v-10.803
		H418.681 M420.681,243.831h-2h-4.664h-2v2v10.803c0,0.968-0.818,1.313-1.585,1.313c-0.651,0-0.979,0-0.979-1.313v-10.803v-2h-2
		h-4.663h-2v2v11.488c0,2.014,0.607,3.799,1.666,5.202h-1.666v2c0,5.898,3.658,9.42,9.785,9.42c5.95,0,10.105-4.081,10.105-9.923
		v-18.187V243.831L420.681,243.831z M409.674,265.721c0.69-0.031,1.354-0.136,1.974-0.308c-0.235,0.326-0.552,0.495-0.858,0.495
		C410.275,265.907,409.92,265.84,409.674,265.721L409.674,265.721z"/>
</g>
<g>
	<path fill="#FFFFFF" d="M298.461,288.687l-0.018-1.097c-0.553,0.915-1.373,1.335-2.443,1.335c-2.211,0-3.798-1.792-3.798-4.827
		c0-2.724,1.337-4.645,3.602-4.645c1.087,0,1.943,0.458,2.604,1.408v-4.461h2.283v12.287H298.461z M298.496,284.408
		c0-1.956-0.66-2.925-1.943-2.925c-1.355,0-1.997,0.933-1.997,2.779c0,1.609,0.82,2.724,1.979,2.724
		C297.64,286.986,298.496,285.926,298.496,284.408z"/>
	<path fill="#FFFFFF" d="M301.67,278.612v-2.213h2.318v2.213H301.67z M301.67,288.687v-8.996h2.318v8.996H301.67z"/>
	<path fill="#FFFFFF" d="M310.247,282.415c-0.107-0.823-0.57-1.188-1.568-1.188c-0.946,0-1.445,0.201-1.445,0.768
		c0,0.494,0.499,0.75,1.427,1.005c3.067,0.859,4.065,1.024,4.065,3.127c0,1.609-1.338,2.797-3.888,2.797
		c-2.514,0-4.137-1.225-4.172-3.126h2.39c0,0.841,0.73,1.335,1.765,1.335c0.875,0,1.605-0.274,1.605-0.86
		c0-0.658-0.464-0.878-1.409-1.097c-3.406-0.768-4.029-1.664-4.029-3.181c0-1.354,1.016-2.542,3.763-2.542
		c2.513,0,3.619,1.116,3.726,2.962H310.247z"/>
	<path fill="#FFFFFF" d="M315.417,284.81c0.072,1.353,0.821,2.231,1.962,2.231c0.749,0,1.409-0.384,1.568-1.005h2.39
		c-0.534,1.847-1.979,2.889-3.851,2.889c-2.925,0-4.387-1.646-4.387-4.9c0-2.78,1.551-4.572,4.244-4.572
		c2.692,0,4.119,1.792,4.119,5.357H315.417z M319.073,283.311c-0.036-1.334-0.891-1.974-1.8-1.974c-0.927,0-1.694,0.731-1.784,1.974
		H319.073z"/>
	<path fill="#FFFFFF" d="M327.793,288.687v-5.449c0-1.39-0.393-1.774-1.498-1.774c-1.212,0-1.8,0.695-1.8,2.067v5.156h-2.318v-8.996
		h2.211v1.316c0.535-1.006,1.427-1.555,2.835-1.555c1.676,0,2.907,1.042,2.907,2.999v6.235H327.793z M329.398,276.363
		c-0.393,1.317-1.177,1.792-1.944,1.792c-0.909,0-1.515-0.823-2.282-0.823c-0.143,0-0.481,0.127-0.695,0.804l-1.23-0.677
		c0.375-1.188,0.999-1.608,1.729-1.608c1.088,0,1.695,0.877,2.372,0.877c0.214,0,0.606-0.219,0.714-0.859L329.398,276.363z"/>
	<path fill="#FFFFFF" d="M330.86,284.188c0-2.852,1.73-4.736,4.511-4.736c2.747,0,4.458,1.865,4.458,4.736
		c0,2.853-1.729,4.736-4.458,4.736C332.537,288.924,330.86,286.986,330.86,284.188z M337.493,284.188
		c0-1.828-0.713-2.725-2.122-2.725c-1.409,0-2.122,0.896-2.122,2.725c0,1.829,0.713,2.743,2.122,2.743
		C336.78,286.931,337.493,286.017,337.493,284.188z"/>
	<path fill="#FFFFFF" d="M348.281,286.73v-3.456h-3.352v-1.719h3.352v-3.438h1.676v3.438h3.371v1.719h-3.371v3.456H348.281z"/>
	<path fill="#FFFFFF" d="M293.289,304.129v-7.314h-1.302v-1.682h1.302c0-2.194,1.23-3.292,3.727-3.292v1.92
		c-1.177,0-1.444,0.329-1.444,1.372h1.498v1.682h-1.498v7.314H293.289z"/>
	<path fill="#FFFFFF" d="M296.659,299.631c0-2.853,1.73-4.736,4.511-4.736c2.747,0,4.458,1.865,4.458,4.736
		c0,2.853-1.729,4.735-4.458,4.735C298.336,304.367,296.659,302.429,296.659,299.631z M303.292,299.631
		c0-1.829-0.713-2.725-2.122-2.725c-1.409,0-2.122,0.896-2.122,2.725c0,1.828,0.713,2.743,2.122,2.743
		C302.58,302.374,303.292,301.459,303.292,299.631z"/>
	<path fill="#FFFFFF" d="M311.352,298.205h2.159v2.56c0,1.902-1.07,3.602-3.548,3.602c-2.568,0-3.584-1.682-3.584-3.621v-8.044
		h2.282v2.432h4.851v1.682h-4.851v3.693c0,1.134,0.393,1.792,1.338,1.792c0.927,0,1.354-0.64,1.354-1.755V298.205z"/>
	<path fill="#FFFFFF" d="M314.152,299.631c0-2.853,1.73-4.736,4.511-4.736c2.747,0,4.458,1.865,4.458,4.736
		c0,2.853-1.729,4.735-4.458,4.735C315.829,304.367,314.152,302.429,314.152,299.631z M320.785,299.631
		c0-1.829-0.713-2.725-2.122-2.725c-1.409,0-2.122,0.896-2.122,2.725c0,1.828,0.713,2.743,2.122,2.743
		C320.072,302.374,320.785,301.459,320.785,299.631z"/>
	<path fill="#FFFFFF" d="M329.986,302.922c-0.321,0.805-1.266,1.28-2.407,1.28c-2.888,0-3.887-2.267-3.887-4.626
		c0-2.797,1.711-4.681,3.833-4.681c1.105,0,1.908,0.439,2.461,1.354v-1.115h2.318v9.087c0,2.706-1.926,4.169-4.369,4.169
		s-4.244-1.445-4.244-3.767h2.158c0,1.079,0.766,1.719,1.925,1.719c1.23,0,2.211-0.75,2.211-1.938V302.922z M330.058,299.851
		c0-1.956-0.659-2.889-1.979-2.889c-1.302,0-1.98,0.896-1.98,2.743c0,1.609,0.839,2.632,1.98,2.632
		C329.202,302.337,330.058,301.368,330.058,299.851z"/>
	<path fill="#FFFFFF" d="M333.231,304.129v-8.996h2.175v1.079c0.768-1.207,1.659-1.317,2.604-1.317h0.303v2.432
		c-0.214-0.036-0.428-0.055-0.643-0.055c-1.426,0-2.122,0.731-2.122,2.176v4.681H333.231z"/>
	<path fill="#FFFFFF" d="M344.02,304.129c-0.071-0.219-0.125-0.531-0.143-0.805c-0.552,0.622-1.48,1.042-2.657,1.042
		c-1.997,0-2.924-1.005-2.924-2.468c0-2.596,1.695-2.889,4.031-3.218c1.159-0.165,1.479-0.402,1.479-1.024
		c0-0.585-0.57-0.932-1.479-0.932c-1.053,0-1.48,0.53-1.587,1.335h-2.158c0.036-1.865,1.034-3.164,3.851-3.164
		c2.782,0,3.745,1.28,3.745,3.548v5.687H344.02z M343.859,299.723c-0.232,0.238-0.642,0.365-1.498,0.53
		c-1.319,0.256-1.747,0.641-1.747,1.409c0,0.676,0.393,1.005,1.124,1.005c1.194,0,2.086-0.896,2.104-1.957L343.859,299.723z"/>
	<path fill="#FFFFFF" d="M347.551,304.129v-7.314h-1.302v-1.682h1.302c0-2.194,1.23-3.292,3.727-3.292v1.92
		c-1.177,0-1.445,0.329-1.445,1.372h1.499v1.682h-1.499v7.314H347.551z"/>
	<path fill="#FFFFFF" d="M352.544,294l-0.553-1.006l3.691-2.212l0.837,1.499L352.544,294z M352.562,304.129v-8.996h2.318v8.996
		H352.562z"/>
	<path fill="#FFFFFF" d="M362.065,304.129c-0.072-0.219-0.125-0.531-0.143-0.805c-0.552,0.622-1.48,1.042-2.657,1.042
		c-1.997,0-2.924-1.005-2.924-2.468c0-2.596,1.694-2.889,4.03-3.218c1.159-0.165,1.479-0.402,1.479-1.024
		c0-0.585-0.57-0.932-1.479-0.932c-1.053,0-1.48,0.53-1.587,1.335h-2.157c0.036-1.865,1.034-3.164,3.851-3.164
		c2.782,0,3.745,1.28,3.745,3.548v5.687H362.065z M361.904,299.723c-0.232,0.238-0.641,0.365-1.498,0.53
		c-1.318,0.256-1.747,0.641-1.747,1.409c0,0.676,0.393,1.005,1.124,1.005c1.195,0,2.086-0.896,2.104-1.957L361.904,299.723z"/>
</g>
<g>
	<g>
		<path fill="#2D9474" d="M450.738,367.686c-26.367,0-47.819-21.453-47.819-47.822c0-26.368,21.452-47.819,47.819-47.819
			c26.365,0,47.815,21.452,47.815,47.819C498.554,346.232,477.104,367.686,450.738,367.686z"/>
		<g>
			<path fill="#FFFFFF" d="M450.738,273.544c25.584,0,46.315,20.742,46.315,46.319c0,25.583-20.731,46.322-46.315,46.322
				c-25.58,0-46.319-20.739-46.319-46.322C404.419,294.286,425.158,273.544,450.738,273.544 M450.738,270.544
				c-27.194,0-49.319,22.125-49.319,49.319c0,27.196,22.125,49.322,49.319,49.322c27.192,0,49.315-22.126,49.315-49.322
				C500.054,292.668,477.931,270.544,450.738,270.544L450.738,270.544z"/>
		</g>
	</g>
	<path fill="#FFFFFF" d="M487.905,319.863c0,20.525-16.64,37.167-37.167,37.167c-20.525,0-37.161-16.642-37.161-37.167
		c0-20.526,16.636-37.162,37.161-37.162C471.266,282.702,487.905,299.337,487.905,319.863z"/>
	<path fill="#F58220" d="M482.718,319.863c0,17.664-14.313,31.979-31.979,31.979c-17.658,0-31.977-14.314-31.977-31.979
		c0-17.66,14.318-31.978,31.977-31.978C468.404,287.885,482.718,302.203,482.718,319.863z"/>
	<path fill="none" stroke="#FFFFFF" stroke-width="2.3922" d="M426.959,342.793c1.654-6.619,7.719-18.487,18.894-34.477"/>
	<path fill="none" stroke="#FFFFFF" stroke-width="2.3922" d="M457.395,352.387c-3.513-4.57-11.258-16.018-18.63-33.182"/>
	<path fill="none" stroke="#FFFFFF" stroke-width="2.3922" d="M482.31,331.493c-5.484,0.89-19.007,2.353-37.312,0.743"/>
	<path fill="none" stroke="#FFFFFF" stroke-width="2.3922" d="M477.3,300.009c-2.447,4.992-10.193,18.046-22.093,32.049"/>
	<path fill="none" stroke="#FFFFFF" stroke-width="2.3922" d="M447.871,286.601c3.653,5.618,10.305,16.691,16.37,33.598"/>
	<path fill="none" stroke="#FFFFFF" stroke-width="2.3922" d="M420.369,308.898c6.324-0.838,19.087-1.739,38.342,0.533"/>
	<path fill="#FFFFFF" d="M445.482,308.387c0,0,8.6-0.332,14.223,0.664c0,0,3.307,7.605,4.305,11.246c0,0-6.615,9.592-8.931,12.237
		c0,0-5.63-0.325-10.259-0.659c0,0-4.962-10.256-5.952-12.903C438.868,318.972,444.158,310.699,445.482,308.387z"/>
</g>
<g>
	<g>
		<path fill="#1385A6" d="M279.616,264.549v-23.913h4.986v23.913H279.616z"/>
	</g>
	<g>
		<path fill="#1385A6" d="M286.326,264.549v-17.718h4.376v2.124c1.541-2.376,3.334-2.593,5.236-2.593h0.609v4.791
			c-0.429-0.072-0.861-0.108-1.292-0.108c-2.869,0-4.268,1.441-4.268,4.286v9.22H286.326z"/>
	</g>
	<g>
		<path fill="#1385A6" d="M300.963,256.915c0.143,2.665,1.648,4.393,3.944,4.393c1.507,0,2.835-0.756,3.158-1.979h4.806
			c-1.076,3.638-3.98,5.69-7.747,5.69c-5.884,0-8.825-3.241-8.825-9.652c0-5.474,3.121-9.004,8.538-9.004
			c5.415,0,8.286,3.53,8.286,10.553H300.963z M308.315,253.96c-0.072-2.629-1.794-3.888-3.622-3.888
			c-1.866,0-3.407,1.44-3.588,3.888H308.315z"/>
	</g>
	<g>
		<path fill="#1385A6" d="M325.858,264.549v-10.731c0-2.738-0.79-3.494-3.013-3.494c-2.439,0-3.621,1.368-3.621,4.069v10.156h-4.664
			v-17.718h4.448v2.592c1.075-1.98,2.869-3.062,5.703-3.062c3.369,0,5.846,2.053,5.846,5.907v12.281H325.858z"/>
	</g>
	<g>
		<path fill="#1385A6" d="M336.694,256.915c0.144,2.665,1.649,4.393,3.946,4.393c1.506,0,2.833-0.756,3.156-1.979h4.806
			c-1.075,3.638-3.98,5.69-7.746,5.69c-5.885,0-8.826-3.241-8.826-9.652c0-5.474,3.123-9.004,8.538-9.004
			c5.417,0,8.285,3.53,8.285,10.553H336.694z M344.047,253.96c-0.07-2.629-1.793-3.888-3.621-3.888c-1.865,0-3.408,1.44-3.588,3.888
			H344.047z"/>
	</g>
	<g>
		<path fill="#1385A6" d="M368.42,264.549l-1.508-4.934h-8.785l-1.688,4.934h-5.271l8.5-23.913h5.776l8.392,23.913H368.42z
			 M362.503,246.002h-0.037l-3.048,9.508h6.061L362.503,246.002z"/>
	</g>
	<g>
		<path fill="#1385A6" d="M374.88,264.549v-17.718h4.377v2.124c1.542-2.376,3.337-2.593,5.237-2.593h0.607v4.791
			c-0.431-0.072-0.858-0.108-1.29-0.108c-2.869,0-4.268,1.441-4.268,4.286v9.22H374.88z"/>
	</g>
	<g>
		<path fill="#1385A6" d="M396.582,264.549c-0.143-0.433-0.25-1.045-0.284-1.584c-1.113,1.225-2.979,2.052-5.347,2.052
			c-4.018,0-5.883-1.981-5.883-4.863c0-5.113,3.409-5.689,8.106-6.337c2.332-0.325,2.979-0.792,2.979-2.018
			c0-1.152-1.15-1.837-2.979-1.837c-2.116,0-2.975,1.044-3.191,2.629h-4.341c0.072-3.673,2.082-6.231,7.747-6.231
			c5.597,0,7.533,2.521,7.533,6.989v11.199H396.582z M396.26,255.87c-0.466,0.468-1.291,0.72-3.013,1.045
			c-2.654,0.504-3.517,1.26-3.517,2.772c0,1.333,0.79,1.981,2.262,1.981c2.402,0,4.196-1.765,4.232-3.854L396.26,255.87z"/>
	</g>
	<g>
		<path fill="#1385A6" d="M414.017,262.208c-0.644,1.584-2.582,2.521-4.77,2.521c-3.694,0-6.457-2.521-6.457-6.411v-11.488h4.663
			v10.803c0,2.197,1.005,3.313,2.979,3.313c2.116,0,3.585-1.405,3.585-3.313v-10.803h4.664v18.187c0,5.005-3.585,7.923-8.105,7.923
			c-5.165,0-7.785-2.845-7.785-7.42h4.343c0,2.089,1.218,3.387,3.656,3.387c1.687,0,3.228-1.477,3.228-3.817V262.208z"/>
	</g>
	<g>
		<path fill="#1385A6" d="M431.596,264.549c-0.143-0.433-0.25-1.045-0.284-1.584c-1.113,1.225-2.979,2.052-5.345,2.052
			c-4.021,0-5.885-1.981-5.885-4.863c0-5.113,3.409-5.689,8.107-6.337c2.331-0.325,2.977-0.792,2.977-2.018
			c0-1.152-1.148-1.837-2.977-1.837c-2.116,0-2.977,1.044-3.192,2.629h-4.341c0.072-3.673,2.082-6.231,7.749-6.231
			c5.595,0,7.531,2.521,7.531,6.989v11.199H431.596z M431.273,255.87c-0.466,0.468-1.291,0.72-3.013,1.045
			c-2.652,0.504-3.516,1.26-3.516,2.772c0,1.333,0.789,1.981,2.26,1.981c2.403,0,4.198-1.765,4.232-3.854L431.273,255.87z"/>
	</g>
	<g>
		<path fill="#1385A6" d="M441.187,264.549v-23.913h4.986v19.555h11.802v4.358H441.187z"/>
	</g>
	<g>
		<path fill="#1385A6" d="M463.357,256.915c0.145,2.665,1.65,4.393,3.945,4.393c1.508,0,2.832-0.756,3.156-1.979h4.809
			c-1.077,3.638-3.981,5.69-7.749,5.69c-5.884,0-8.824-3.241-8.824-9.652c0-5.474,3.121-9.004,8.537-9.004s8.285,3.53,8.285,10.553
			H463.357z M470.712,253.96c-0.071-2.629-1.793-3.888-3.624-3.888c-1.864,0-3.407,1.44-3.586,3.888H470.712z"/>
	</g>
	<g>
		<path fill="#1385A6" d="M476.561,255.689c0-5.617,3.477-9.328,9.072-9.328c5.527,0,8.968,3.674,8.968,9.328
			c0,5.618-3.478,9.328-8.968,9.328C479.931,265.018,476.561,261.2,476.561,255.689z M489.903,255.689
			c0-3.602-1.434-5.365-4.271-5.365c-2.832,0-4.267,1.764-4.267,5.365c0,3.602,1.435,5.402,4.267,5.402
			C488.47,261.092,489.903,259.292,489.903,255.689z M483.233,244.598l-1.113-1.981l7.424-4.358l1.686,2.954L483.233,244.598z"/>
	</g>
	<g>
		<path fill="#1385A6" d="M507.408,264.549v-10.731c0-2.738-0.789-3.494-3.012-3.494c-2.44,0-3.623,1.368-3.623,4.069v10.156h-4.663
			v-17.718h4.447v2.592c1.078-1.98,2.869-3.062,5.706-3.062c3.372,0,5.846,2.053,5.846,5.907v12.281H507.408z"/>
	</g>
</g>
</svg>
